<svg xmlns="http://www.w3.org/2000/svg" width="26.227" height="26.19" viewBox="0 0 26.227 26.19">
    <path d="M26.226 8.303a.833.833 0 0 0-.393-.7C13.34.193 13.516-.359 12.706.131 3.233 6.017.601 7.33.223 7.788c-.344.353-.19.893-.19 9.056-.023.929 8.45 5.96 12.57 9.171a.878.878 0 0 0 1.095-.032c12.248-8.682 12.546-8.333 12.525-9.139 0 0-.013-8.65 0-8.54zm-1.637 7.083l-4.229-2.575 4.23-2.943zm-5.756-3.504L13.95 8.911V2.287l9.959 6.062zm-5.7 3.965l-4.23-2.943 4.23-2.574 4.23 2.574zm-.82-13.561v6.625c-1.9 1.177-3.5 2.161-4.857 2.984l-5.1-3.549zm-6.392 10.54c-2.045 1.23-3.381 2.011-4.248 2.532V9.869zm1.452 1.008l4.94 3.436v6.546l-9.959-6.928zm6.577 9.984v-6.547l4.94-3.436 5.019 3.054z"/>
</svg>
