<svg xmlns="http://www.w3.org/2000/svg" id="facebook" width="26.19" height="26.19" viewBox="0 0 26.19 26.19">
    <defs>
        <style>
            .cls-1{fill:#4267b2}.cls-2{fill:#fff}
        </style>
    </defs>
    <path id="패스_2" d="M24.744 0h-23.3A1.445 1.445 0 0 0 0 1.446v23.3a1.445 1.445 0 0 0 1.445 1.444h23.3a1.445 1.445 0 0 0 1.446-1.445V1.444A1.445 1.445 0 0 0 24.744 0zm0 0" class="cls-1" data-name="패스 2"/>
    <path id="패스_3" d="M214.494 99.559V89.431h3.414l.512-3.964h-3.926v-2.525c0-1.145.318-1.925 1.96-1.925h2.081V77.48a27.976 27.976 0 0 0-3.05-.156c-3.018 0-5.084 1.842-5.084 5.225v2.918H207v3.964h3.4v10.128zm0 0" class="cls-2" data-name="패스 3" transform="translate(-196.411 -73.369)"/>
</svg>
