<svg xmlns="http://www.w3.org/2000/svg" width="27.215" height="26.081" viewBox="0 0 27.215 26.081">
    <path d="M13.607 0A13.49 13.49 0 0 0 0 13.372a13.394 13.394 0 0 0 9.3 12.686c.68.126.93-.288.93-.643 0-.318-.011-1.159-.017-2.274-3.785.806-4.583-1.794-4.583-1.794a3.564 3.564 0 0 0-1.51-1.955c-1.233-.829.1-.812.1-.812a2.847 2.847 0 0 1 2.08 1.377 2.93 2.93 0 0 0 3.963 1.112 2.831 2.831 0 0 1 .862-1.788c-3.022-.335-6.2-1.484-6.2-6.608a5.109 5.109 0 0 1 1.4-3.588 4.678 4.678 0 0 1 .119-3.539s1.14-.358 3.742 1.371a13.047 13.047 0 0 1 6.8 0c2.585-1.729 3.725-1.371 3.725-1.371a4.808 4.808 0 0 1 .136 3.539 5.129 5.129 0 0 1 1.395 3.588c0 5.137-3.181 6.267-6.208 6.6a3.173 3.173 0 0 1 .918 2.474c0 1.789-.017 3.227-.017 3.662 0 .35.238.769.936.635a13.353 13.353 0 0 0 9.339-12.67A13.492 13.492 0 0 0 13.607 0z"/>
</svg>
